<?xml version="1.0" encoding="UTF-8" standalone="no"?>
<svg id="svg3038" xmlns:sketch="http://www.bohemiancoding.com/sketch/ns" xmlns:rdf="http://www.w3.org/1999/02/22-rdf-syntax-ns#" xmlns="http://www.w3.org/2000/svg" height="10" width="42" version="1.1" xmlns:cc="http://creativecommons.org/ns#" xmlns:xlink="http://www.w3.org/1999/xlink" viewBox="0 0 42 10" xmlns:dc="http://purl.org/dc/elements/1.1/">
 <metadata id="metadata3051">
  <rdf:RDF>
   <cc:Work rdf:about="">
    <dc:format>image/svg+xml</dc:format>
    <dc:type rdf:resource="http://purl.org/dc/dcmitype/StillImage"/>
   </cc:Work>
  </rdf:RDF>
 </metadata>
<!-- Generator: Sketch 3.0.4 (8053) - http://www.bohemiancoding.com/sketch -->
 <title id="title3040">carat</title>
 <desc id="desc3042">Created with Sketch.</desc>
 <g id="Page-1" transform="translate(.005535 .017045)" fill="none" sketch:type="MSPage">
  <g id="Top-Stops-Visualization-UI-#4" transform="translate(-296,-103)" fill="#666" sketch:type="MSArtboardGroup">
   <path id="carat" sketch:type="MSShapeGroup" d="m296 105.22 1.83-2.22 5.17 3.53 5.17-3.53 1.83 2.22-7 4.78l-7-4.7822z" transform="matrix(-1,0,0,-1,606,213)"/>
  </g>
 </g>
 <use id="use3053" xlink:href="#Page-1" transform="matrix(1 0 0 -1 14.04 7.0341)" height="7" width="14" y="0" x="0"/>
 <g id="Page-1-0" transform="translate(27.486 -.47159)" fill="none" sketch:type="MSPage">
  <g id="Top-Stops-Visualization-UI-#4-7" fill="#666" transform="translate(-773,-94)" sketch:type="MSArtboardGroup">
   <path id="small-carat" d="m772 98.218 1.3-2.218 3.7 3.535 3.7-3.535 1.3 2.218-5 4.782-5-4.782z" transform="matrix(0,-1,1,0,677.5,876.5)" sketch:type="MSShapeGroup"/>
  </g>
 </g>
 <g id="g3251" sketch:type="MSPage" fill="none" transform="matrix(-1 0 0 1 42.486 -.47407)">
  <g id="g3253" transform="translate(-773,-94)" fill="#666" sketch:type="MSArtboardGroup">
   <path id="path3255" sketch:type="MSShapeGroup" transform="matrix(0,-1,1,0,677.5,876.5)" d="m772 98.218 1.3-2.218 3.7 3.535 3.7-3.535 1.3 2.218-5 4.782-5-4.782z"/>
  </g>
 </g>
</svg>
